<svg width="486" height="411" viewBox="0 0 486 411" fill="none" xmlns="http://www.w3.org/2000/svg">
<g clip-path="url(#clip0)">
<path d="M466 137.138C466.029 168.828 454.67 199.47 433.997 223.47C413.324 247.469 384.717 263.224 353.401 267.856H317.649C317.593 267.905 315.611 268 315.611 268C315.278 267.954 314.942 267.905 314.61 267.856C312.064 267.481 309.542 267.034 307.043 266.514C297.259 264.486 287.739 261.34 278.672 257.138C278.577 257.096 278.486 257.05 278.392 257.008C273.339 254.661 268.442 251.99 263.732 249.014C263.613 248.94 263.497 248.866 263.382 248.793C263.182 248.667 262.986 248.544 262.79 248.414C262.727 248.376 262.664 248.337 262.601 248.295C258.39 245.58 254.337 242.626 250.462 239.448C250.273 239.298 250.084 239.14 249.895 238.986C249.135 238.355 248.382 237.717 247.636 237.072C247.629 237.069 247.626 237.062 247.619 237.058C243.808 233.752 240.187 230.232 236.775 226.515C236.765 226.501 236.751 226.49 236.74 226.476C221.75 210.154 211.113 190.312 205.813 168.784C205.771 168.63 205.736 168.479 205.697 168.325C203.234 158.113 201.993 147.644 202 137.138C202 64.1606 261.099 5 334 5C406.901 5 466 64.1606 466 137.138Z" fill="#3F3D56"/>
<path opacity="0.8" d="M346.203 156.631L357.747 143.103L369.292 129.574L375.808 121.937C376.169 121.514 375.612 120.855 375.252 121.278L363.708 134.806L352.164 148.335L345.647 155.972C345.286 156.395 345.843 157.054 346.203 156.631Z" fill="url(#paint0_linear)"/>
<path d="M338.92 223.048L311.509 258.66L315.3 259.536L336.587 232.097H338.92V223.048Z" fill="#2F2E41"/>
<path d="M348.996 223.048L376.407 258.66L372.616 259.536L351.329 232.097H348.996V223.048Z" fill="#2F2E41"/>
<path d="M429.369 90.9595V228.495C420.852 237.404 411.135 245.081 400.501 251.306V90.9595H429.369Z" fill="#2F2E41"/>
<path d="M443.073 108.476H424.119V127.449H443.073V108.476Z" fill="#2F2E41"/>
<path d="M417.121 45.1323H412.747V94.7562H417.121V45.1323Z" fill="#2F2E41"/>
<g opacity="0.4">
<path opacity="0.4" d="M402.952 90.96H400.501V251.306C401.324 250.824 402.141 250.333 402.952 249.832V90.96Z" fill="#E6E6E6"/>
<path opacity="0.4" d="M415.198 45.1323H412.747V90.96H415.198V45.1323Z" fill="#E6E6E6"/>
</g>
<path d="M421.932 113.584H406.186V122.341H421.932V113.584Z" fill="#6C63FF"/>
<path d="M326.715 114.367C339.514 114.367 349.891 103.98 349.891 91.1667C349.891 78.3535 339.514 67.9663 326.715 67.9663C313.915 67.9663 303.538 78.3535 303.538 91.1667C303.538 103.98 313.915 114.367 326.715 114.367Z" fill="#E6E6E6"/>
<path d="M324.435 77.8549C325.904 77.8549 327.094 76.663 327.094 75.1926C327.094 73.7222 325.904 72.5303 324.435 72.5303C322.966 72.5303 321.775 73.7222 321.775 75.1926C321.775 76.663 322.966 77.8549 324.435 77.8549Z" fill="#CBCBCB"/>
<path d="M328.994 104.478C330.463 104.478 331.654 103.287 331.654 101.816C331.654 100.346 330.463 99.1538 328.994 99.1538C327.525 99.1538 326.335 100.346 326.335 101.816C326.335 103.287 327.525 104.478 328.994 104.478Z" fill="#CBCBCB"/>
<path d="M339.253 88.8849C340.302 88.8849 341.152 88.0335 341.152 86.9832C341.152 85.9329 340.302 85.0815 339.253 85.0815C338.203 85.0815 337.353 85.9329 337.353 86.9832C337.353 88.0335 338.203 88.8849 339.253 88.8849Z" fill="#CBCBCB"/>
<path d="M317.596 99.1536C320.954 99.1536 323.675 96.4291 323.675 93.0683C323.675 89.7074 320.954 86.9829 317.596 86.9829C314.239 86.9829 311.517 89.7074 311.517 93.0683C311.517 96.4291 314.239 99.1536 317.596 99.1536Z" fill="#CBCBCB"/>
<path d="M290.239 128.652C290.93 128.652 291.491 128.091 291.491 127.399C291.491 126.706 290.93 126.145 290.239 126.145C289.547 126.145 288.986 126.706 288.986 127.399C288.986 128.091 289.547 128.652 290.239 128.652Z" fill="#6C63FF"/>
<path d="M301.092 145.582L300.467 146.204L299.846 145.578L299.429 145.992L300.05 146.618L299.425 147.24L299.839 147.657L300.464 147.035L301.085 147.661L301.501 147.247L300.881 146.621L301.506 145.999L301.092 145.582Z" fill="#E6E6E6"/>
<path d="M306.101 109.229L305.476 109.851L304.855 109.225L304.438 109.639L305.059 110.265L304.434 110.886L304.848 111.304L305.473 110.682L306.094 111.308L306.51 110.893L305.89 110.268L306.515 109.646L306.101 109.229Z" fill="#E6E6E6"/>
<path d="M321.843 40.2444C320.491 41.1463 319.107 38.9997 320.485 38.1379C321.837 37.236 323.221 39.3826 321.843 40.2444Z" fill="#E6E6E6"/>
<path d="M243.511 133.538L242.65 133.349L242.839 132.487L242.265 132.361L242.077 133.223L241.216 133.034L241.091 133.608L241.951 133.797L241.762 134.658L242.336 134.784L242.525 133.923L243.385 134.112L243.511 133.538Z" fill="#E6E6E6"/>
<path d="M375.161 30.1406L374.3 29.9517L374.489 29.0902L373.915 28.9644L373.726 29.8259L372.866 29.6373L372.74 30.2114L373.601 30.4003L373.412 31.2615L373.986 31.3874L374.175 30.5258L375.035 30.7147L375.161 30.1406Z" fill="#E6E6E6"/>
<path d="M442.386 85.8696L441.526 85.6807L441.714 84.8192L441.141 84.6934L440.952 85.5549L440.092 85.3663L439.966 85.9404L440.826 86.1294L440.638 86.9905L441.211 87.1164L441.4 86.2548L442.26 86.4438L442.386 85.8696Z" fill="#E6E6E6"/>
<path d="M279.89 43.7321L279.03 43.5432L279.219 42.682L278.645 42.5562L278.456 43.4173L277.596 43.2288L277.47 43.8029L278.331 43.9918L278.142 44.8533L278.716 44.9788L278.904 44.1176L279.765 44.3062L279.89 43.7321Z" fill="#E6E6E6"/>
<path d="M361.429 72.3401C362.121 72.3401 362.681 71.7789 362.681 71.0866C362.681 70.3942 362.121 69.833 361.429 69.833C360.738 69.833 360.177 70.3942 360.177 71.0866C360.177 71.7789 360.738 72.3401 361.429 72.3401Z" fill="#6C63FF"/>
<path d="M358.479 123.243L357.618 123.054L357.807 122.192L357.233 122.066L357.044 122.928L356.184 122.739L356.058 123.313L356.919 123.502L356.73 124.364L357.304 124.489L357.493 123.628L358.353 123.817L358.479 123.243Z" fill="#E6E6E6"/>
<path d="M385.28 74.5758L384.42 74.3869L384.609 73.5257L384.035 73.3999L383.846 74.2611L382.986 74.0725L382.86 74.6466L383.721 74.8355L383.532 75.6971L384.106 75.8226L384.294 74.9614L385.155 75.1499L385.28 74.5758Z" fill="#E6E6E6"/>
<path opacity="0.8" d="M327.296 81.6246L338.84 68.0959L350.384 54.5671L356.901 46.93C357.262 46.5074 356.705 45.8482 356.345 46.2707L344.801 59.7994L333.257 73.3282L326.74 80.9654C326.379 81.3879 326.936 82.0471 327.296 81.6246Z" fill="url(#paint1_linear)"/>
<path d="M339.075 231.762H336.974V267.521H339.075V231.762Z" fill="#E6E6E6"/>
<path d="M352.969 231.762H351.014V231.95L372.155 259.201L373.937 258.789L352.969 231.762Z" fill="#E6E6E6"/>
<path d="M382.276 253.552V260.159C372.976 263.818 363.288 266.4 353.401 267.856H310.335C309.232 267.656 308.132 267.442 307.043 267.215V253.552H382.276Z" fill="#2F2E41"/>
<path d="M414.355 48.9873C416.483 48.9873 418.207 47.2612 418.207 45.1318C418.207 43.0025 416.483 41.2764 414.355 41.2764C412.228 41.2764 410.504 43.0025 410.504 45.1318C410.504 47.2612 412.228 48.9873 414.355 48.9873Z" fill="#6C63FF"/>
</g>
<path d="M186.127 197.091C202.908 197.091 216.512 183.524 216.512 166.789C216.512 150.055 202.908 136.488 186.127 136.488C169.345 136.488 155.741 150.055 155.741 166.789C155.741 183.524 169.345 197.091 186.127 197.091Z" fill="#A0616A"/>
<path d="M163.447 181.94C163.447 181.94 169.172 224.977 160.365 229.807C151.557 234.638 212.769 235.077 212.769 235.077C212.769 235.077 199.118 197.75 205.283 186.332L163.447 181.94Z" fill="#A0616A"/>
<path d="M257.467 235.295L252.376 258.411L241.612 307.318L241.29 309.997L237.575 341.004L235.104 361.603L233.447 375.44C223.373 380.603 216.071 384.167 216.071 384.167C216.071 384.167 215.443 381.027 214.431 377.01C207.361 379.124 194.279 382.63 183.192 383.331C187.229 387.818 189.085 392.033 186.568 395.144C178.974 404.523 147.619 384.876 136.653 377.55C136.397 379.304 136.301 381.077 136.363 382.849L127.971 376.412L128.802 361.603L130.202 336.546L131.963 305.122C131.408 303.776 130.942 302.396 130.57 300.989C128 291.874 124.88 273.674 122.488 258.411C120.562 246.128 119.116 235.748 118.81 233.539C118.769 233.251 118.748 233.102 118.748 233.102L165.205 212.631C168.507 220.267 183.924 222.562 183.924 222.562C196.696 221.684 206.708 214.968 206.708 214.968L257.467 235.295Z" fill="#D0CDE1"/>
<path d="M219.596 375.386C219.596 375.386 217.629 376.058 214.431 377.01C207.361 379.124 194.279 382.63 183.192 383.331C173.647 383.941 165.581 382.474 164.106 376.264C163.474 373.594 164.371 371.398 166.325 369.593C172.16 364.199 187.399 362.266 199.485 361.603C202.898 361.418 206.055 361.331 208.683 361.298C213.146 361.24 216.071 361.331 216.071 361.331L216.142 361.603L219.596 375.386Z" fill="#A0616A"/>
<path d="M160.849 138.128L155.167 135.86C155.167 135.86 167.047 122.818 183.574 123.952L178.926 118.848C178.926 118.848 190.289 114.312 200.618 126.22C206.049 132.479 212.331 139.837 216.248 148.126H222.332L219.793 153.702L228.681 159.278L219.558 158.276C220.102 161.33 220.185 164.447 219.806 167.525C219.414 170.604 217.839 173.411 215.412 175.353C215.412 175.353 208.366 160.809 208.366 158.541V164.212C208.366 164.212 202.684 159.108 202.684 155.706L199.585 159.675L198.036 153.438L178.926 159.675L182.025 154.572L170.145 156.273L174.794 150.036C174.794 150.036 161.365 157.407 160.849 163.645C160.332 169.882 156.402 175.792 156.402 175.792C156.402 175.792 145.87 146.633 160.849 138.128Z" fill="#2F2E41"/>
<path d="M290.495 341.569C287.4 344.915 279.73 349.954 270.433 355.41C266.975 357.437 263.293 359.526 259.537 361.603C250.574 366.56 241.19 371.472 233.447 375.44C223.373 380.603 216.071 384.168 216.071 384.168C216.071 384.168 215.443 381.028 214.431 377.01C213.076 371.633 211.034 364.681 208.906 361.603C208.832 361.496 208.758 361.397 208.683 361.298C208.063 360.487 207.44 360.013 206.824 360.013L237.575 341.004L250.864 332.788L241.29 309.997L229.282 281.408L236.529 258.411L243.814 235.295H257.467C257.467 235.295 261.987 245.135 267.768 258.856C268.632 260.908 269.524 263.047 270.433 265.256C282.325 294.1 297.151 334.379 290.495 341.569Z" fill="#D0CDE1"/>
<path d="M186.568 395.145C178.974 404.523 147.619 384.876 136.653 377.55C134.264 375.955 132.843 374.945 132.843 374.945L142.876 361.603L146.053 357.379C146.053 357.379 148.896 358.883 153.098 361.331C153.251 361.422 153.404 361.512 153.561 361.603C157.185 363.725 161.734 366.498 166.325 369.593C172.66 373.866 179.064 378.741 183.192 383.331C187.229 387.818 189.085 392.034 186.568 395.145Z" fill="#A0616A"/>
<path d="M153.098 361.331C151.977 361.327 150.857 361.418 149.751 361.603C140.252 363.231 137.45 371.806 136.653 377.55C136.397 379.304 136.301 381.078 136.363 382.849L127.971 376.413L124.913 374.068C117.554 371.509 110.997 366.964 105.311 361.603C100.378 356.87 95.9537 351.638 92.1087 345.99C88.279 340.424 84.865 334.585 81.8942 328.519C81.0653 326.826 80.6197 324.973 80.589 323.089C80.5583 321.206 80.9432 319.339 81.7165 317.62L92.1087 294.524L107.298 260.768C107.41 259.965 107.532 259.179 107.666 258.411C110.678 241.187 118.748 233.54 118.748 233.54H124.913L129.037 258.411L134.161 289.312L130.57 300.989L122.273 327.959L130.202 336.546L153.098 361.331Z" fill="#D0CDE1"/>
<path d="M160.076 289.337L165.346 295.468C167.305 295.096 169.349 294.659 171.455 294.167L169.942 289.337L173.643 293.643C195.955 288.17 223.611 277.531 223.611 277.531C223.611 277.531 193.754 279.714 171.461 274.857C161.597 272.708 151.449 277.584 147.401 286.808C145.048 292.169 145.418 296.814 153.762 296.814C156.581 296.766 159.393 296.502 162.172 296.025L160.076 289.337Z" fill="#6C63FF"/>
<path d="M280.226 390.118V392.619C280.228 393.306 280.1 393.986 279.85 394.626C279.739 394.911 279.605 395.186 279.45 395.45C278.957 396.274 278.258 396.957 277.422 397.431C276.585 397.904 275.639 398.153 274.677 398.153H90.1584C89.1962 398.153 88.2505 397.904 87.4138 397.431C86.5771 396.957 85.8783 396.274 85.3859 395.45C85.2301 395.186 85.096 394.911 84.985 394.626C84.7352 393.986 84.6076 393.306 84.609 392.619V390.118C84.6088 389.391 84.7522 388.671 85.0311 388C85.3099 387.328 85.7186 386.718 86.234 386.204C86.7493 385.69 87.3612 385.283 88.0345 385.005C88.7079 384.727 89.4296 384.584 90.1584 384.584H100.794V383.418C100.794 383.387 100.8 383.357 100.812 383.329C100.824 383.301 100.841 383.276 100.862 383.254C100.884 383.233 100.909 383.216 100.937 383.204C100.965 383.193 100.995 383.187 101.026 383.187H106.575C106.606 383.187 106.636 383.193 106.664 383.204C106.692 383.216 106.717 383.233 106.739 383.254C106.76 383.276 106.778 383.301 106.789 383.329C106.801 383.357 106.807 383.387 106.807 383.418V384.584H110.273V383.418C110.273 383.387 110.279 383.357 110.291 383.329C110.303 383.301 110.32 383.276 110.341 383.254C110.363 383.233 110.388 383.216 110.416 383.204C110.444 383.193 110.474 383.187 110.505 383.187H116.054C116.085 383.187 116.115 383.193 116.143 383.204C116.171 383.216 116.196 383.233 116.218 383.254C116.239 383.276 116.256 383.301 116.268 383.329C116.28 383.357 116.286 383.387 116.286 383.418V384.584H119.757V383.418C119.757 383.387 119.762 383.357 119.774 383.329C119.786 383.301 119.803 383.276 119.824 383.254C119.846 383.233 119.871 383.216 119.899 383.204C119.927 383.193 119.958 383.187 119.988 383.187H125.537C125.568 383.187 125.598 383.193 125.626 383.204C125.654 383.216 125.68 383.233 125.701 383.254C125.723 383.276 125.74 383.301 125.751 383.329C125.763 383.357 125.769 383.387 125.769 383.418V384.584H129.236V383.418C129.236 383.387 129.242 383.357 129.253 383.329C129.265 383.301 129.282 383.276 129.303 383.254C129.325 383.233 129.35 383.216 129.378 383.204C129.406 383.193 129.437 383.187 129.467 383.187H135.016C135.047 383.187 135.077 383.193 135.105 383.204C135.133 383.216 135.159 383.233 135.18 383.254C135.202 383.276 135.219 383.301 135.23 383.329C135.242 383.357 135.248 383.387 135.248 383.418V384.584H138.715V383.418C138.715 383.387 138.721 383.357 138.732 383.329C138.744 383.301 138.761 383.276 138.782 383.254C138.804 383.233 138.829 383.216 138.857 383.204C138.885 383.193 138.916 383.187 138.946 383.187H144.495C144.526 383.187 144.556 383.193 144.584 383.204C144.612 383.216 144.638 383.233 144.659 383.254C144.681 383.276 144.698 383.301 144.709 383.329C144.721 383.357 144.727 383.387 144.727 383.418V384.584H148.198V383.418C148.198 383.387 148.204 383.357 148.215 383.329C148.227 383.301 148.244 383.276 148.265 383.254C148.287 383.233 148.312 383.216 148.341 383.204C148.369 383.193 148.399 383.187 148.429 383.187H153.979C154.009 383.187 154.039 383.193 154.067 383.204C154.095 383.216 154.121 383.233 154.142 383.254C154.164 383.276 154.181 383.301 154.192 383.329C154.204 383.357 154.21 383.387 154.21 383.418V384.584H157.677V383.418C157.677 383.387 157.683 383.357 157.694 383.329C157.706 383.301 157.723 383.276 157.744 383.254C157.766 383.233 157.791 383.216 157.82 383.204C157.848 383.193 157.878 383.187 157.908 383.187H201.378C201.408 383.187 201.438 383.193 201.466 383.204C201.494 383.216 201.52 383.233 201.542 383.254C201.563 383.276 201.58 383.301 201.592 383.329C201.603 383.357 201.609 383.387 201.609 383.418V384.584H205.08V383.418C205.08 383.387 205.086 383.357 205.098 383.329C205.109 383.301 205.126 383.276 205.148 383.254C205.169 383.233 205.195 383.216 205.223 383.204C205.251 383.193 205.281 383.187 205.312 383.187H210.861C210.922 383.188 210.981 383.212 211.024 383.255C211.067 383.298 211.092 383.357 211.092 383.418V384.584H214.559V383.418C214.559 383.387 214.565 383.357 214.577 383.329C214.588 383.301 214.605 383.276 214.627 383.254C214.648 383.233 214.674 383.216 214.702 383.204C214.73 383.193 214.76 383.187 214.791 383.187H220.34C220.37 383.187 220.4 383.193 220.429 383.204C220.457 383.216 220.482 383.233 220.504 383.254C220.525 383.276 220.542 383.301 220.554 383.329C220.565 383.357 220.571 383.387 220.571 383.418V384.584H224.038V383.418C224.038 383.387 224.044 383.357 224.056 383.329C224.067 383.301 224.084 383.276 224.106 383.254C224.127 383.233 224.153 383.216 224.181 383.204C224.209 383.193 224.239 383.187 224.27 383.187H229.819C229.849 383.187 229.88 383.193 229.908 383.204C229.936 383.216 229.961 383.233 229.983 383.254C230.004 383.276 230.021 383.301 230.033 383.329C230.044 383.357 230.05 383.387 230.05 383.418V384.584H233.521V383.418C233.521 383.387 233.527 383.357 233.539 383.329C233.55 383.301 233.568 383.276 233.589 383.254C233.611 383.233 233.636 383.216 233.664 383.204C233.692 383.193 233.722 383.187 233.753 383.187H239.302C239.363 383.188 239.421 383.212 239.463 383.256C239.506 383.299 239.53 383.357 239.529 383.418V384.584H243V383.418C243 383.387 243.006 383.357 243.018 383.329C243.03 383.301 243.047 383.276 243.068 383.254C243.09 383.233 243.115 383.216 243.143 383.204C243.171 383.193 243.201 383.187 243.232 383.187H248.781C248.812 383.187 248.842 383.193 248.87 383.204C248.898 383.216 248.923 383.233 248.945 383.254C248.966 383.276 248.983 383.301 248.995 383.329C249.007 383.357 249.013 383.387 249.013 383.418V384.584H252.479V383.418C252.479 383.387 252.485 383.357 252.497 383.329C252.509 383.301 252.526 383.276 252.547 383.254C252.569 383.233 252.594 383.216 252.622 383.204C252.65 383.193 252.68 383.187 252.711 383.187H258.26C258.291 383.187 258.321 383.193 258.349 383.204C258.377 383.216 258.402 383.233 258.424 383.254C258.445 383.276 258.462 383.301 258.474 383.329C258.486 383.357 258.492 383.387 258.492 383.418V384.584H274.677C275.406 384.584 276.128 384.727 276.801 385.005C277.474 385.283 278.086 385.69 278.601 386.204C279.117 386.718 279.526 387.328 279.804 388C280.083 388.671 280.227 389.391 280.226 390.118Z" fill="#3F3D56"/>
<path d="M333.881 394.625H30.9991V395.45H333.881V394.625Z" fill="#3F3D56"/>
<path d="M265.369 284.783H196.593V283.37H165.408V284.783H96.3486C95.1147 284.783 93.9314 285.272 93.059 286.142C92.1866 287.012 91.6964 288.192 91.6964 289.422V383.335C91.6964 384.566 92.1865 385.746 93.059 386.616C93.9314 387.486 95.1147 387.975 96.3486 387.975H265.369C266.603 387.975 267.786 387.486 268.659 386.616C269.531 385.746 270.021 384.566 270.021 383.335V289.422C270.021 288.813 269.901 288.21 269.667 287.647C269.433 287.084 269.091 286.573 268.659 286.142C268.227 285.711 267.714 285.369 267.149 285.136C266.585 284.903 265.98 284.783 265.369 284.783Z" fill="#3F3D56"/>
<path d="M45.0813 212.82C63.1875 212.82 77.8655 198.183 77.8655 180.127C77.8655 162.071 63.1875 147.434 45.0813 147.434C26.9751 147.434 12.2971 162.071 12.2971 180.127C12.2971 198.183 26.9751 212.82 45.0813 212.82Z" fill="#6C63FF"/>
<path d="M56.5061 141.277C53.5376 140.901 50.5333 140.901 47.5649 141.277C40.9517 142.143 34.7264 144.882 29.6277 149.171C24.529 153.459 20.7709 159.116 18.7993 165.47C17.9026 168.365 17.3948 171.367 17.2892 174.396C17.2744 174.817 17.2644 175.243 17.2644 175.669C17.2736 184.862 20.94 193.676 27.4588 200.177C33.9777 206.678 42.8165 210.334 52.0355 210.343C52.7756 210.343 53.5158 210.318 54.246 210.274C55.96 210.167 57.6636 209.931 59.3424 209.57C67.3594 207.851 74.5093 203.362 79.5292 196.896C84.5492 190.43 87.1161 182.403 86.7768 174.232C86.4375 166.062 83.2137 158.274 77.6748 152.243C72.1358 146.213 64.6382 142.329 56.5061 141.277H56.5061ZM62.9188 207.559H62.9139C60.1136 208.512 57.1988 209.09 54.2459 209.278C53.5157 209.328 52.7756 209.352 52.0355 209.352C43.0805 209.342 34.4953 205.789 28.1632 199.475C21.831 193.16 18.2688 184.599 18.2578 175.669C18.2578 175.243 18.2678 174.817 18.2827 174.396C18.6241 165.693 22.3282 157.459 28.6195 151.418C34.9109 145.377 43.3017 141.997 52.0355 141.985C60.0378 141.986 67.7802 144.819 73.8831 149.981C79.986 155.143 84.0531 162.297 85.3597 170.17C86.6664 178.043 85.1278 186.123 81.0181 192.971C76.9083 199.818 70.4943 204.988 62.9188 207.559H62.9188Z" fill="#3F3D56"/>
<path d="M52.5323 143.967H51.5388V150.902H52.5323V143.967Z" fill="#3F3D56"/>
<path d="M29.9073 152.902L29.2048 153.603L34.1222 158.506L34.8247 157.806L29.9073 152.902Z" fill="#3F3D56"/>
<path d="M20.2449 175.174V176.165H27.1991V175.174H20.2449Z" fill="#3F3D56"/>
<path d="M29.2049 197.736L29.9073 198.436L34.8247 193.532L34.1222 192.832L29.2049 197.736Z" fill="#3F3D56"/>
<path d="M69.2464 157.806L69.9489 158.506L74.8662 153.603L74.1638 152.902L69.2464 157.806Z" fill="#3F3D56"/>
<path d="M76.8721 175.174V176.165H83.8263V175.174H76.8721Z" fill="#3F3D56"/>
<path d="M69.9488 192.832L69.2463 193.533L74.1637 198.436L74.8662 197.736L69.9488 192.832Z" fill="#3F3D56"/>
<path d="M52.5323 200.437H51.5388V207.371H52.5323V200.437Z" fill="#3F3D56"/>
<path d="M53.5258 173.688C53.0959 173.367 52.573 173.193 52.0356 173.193C51.4982 173.193 50.9753 173.367 50.5454 173.688C50.2511 173.911 50.0088 174.195 49.8351 174.52C49.615 174.939 49.5199 175.412 49.5608 175.883C49.6017 176.355 49.777 176.804 50.066 177.179C50.3551 177.554 50.7457 177.839 51.1917 177.999C51.6378 178.16 52.1206 178.19 52.5832 178.086C53.0457 177.981 53.4687 177.747 53.8021 177.411C54.1354 177.074 54.3652 176.65 54.4644 176.187C54.5635 175.725 54.5278 175.244 54.3615 174.801C54.1952 174.358 53.9052 173.972 53.5258 173.688H53.5258ZM52.0356 177.156C51.6407 177.154 51.2624 176.998 50.9831 176.719C50.7039 176.441 50.5466 176.063 50.5454 175.67C50.5473 175.369 50.639 175.076 50.8087 174.828C50.9542 174.617 51.1517 174.448 51.382 174.336C51.6123 174.224 51.8677 174.174 52.1234 174.189C52.3791 174.205 52.6264 174.285 52.8416 174.424C53.0568 174.563 53.2324 174.754 53.3516 174.98C53.4708 175.207 53.5294 175.459 53.5219 175.715C53.5143 175.97 53.4408 176.219 53.3085 176.438C53.1762 176.657 52.9895 176.838 52.7665 176.963C52.5435 177.089 52.2917 177.155 52.0356 177.156V177.156Z" fill="#3F3D56"/>
<path d="M56.5061 132.574H47.5649V141.49H56.5061V132.574Z" fill="#3F3D56"/>
<path d="M52.0355 134.06C58.6196 134.06 63.9571 132.175 63.9571 129.85C63.9571 127.524 58.6196 125.639 52.0355 125.639C45.4515 125.639 40.114 127.524 40.114 129.85C40.114 132.175 45.4515 134.06 52.0355 134.06Z" fill="#3F3D56"/>
<path d="M53.5258 156.846H50.5454V173.688H53.5258V156.846Z" fill="#3F3D56"/>
<path d="M99.3852 208.834H6V209.825H99.3852V208.834Z" fill="#3F3D56"/>
<g clip-path="url(#clip1)" filter="url(#filter0_d)">
<path fill-rule="evenodd" clip-rule="evenodd" d="M195.001 348.604C197.737 345.307 199.777 340.606 199.874 335.419C199.983 329.602 197.725 324.589 194.512 321.188C194.245 320.906 193.973 320.635 193.696 320.375C195.768 323.216 197.12 326.95 197.041 331.17C196.956 335.686 195.18 339.779 192.798 342.65C190.054 345.957 186.591 347.832 183.04 348.491C179.352 349.176 175.423 348.515 172.017 346.352C168.881 344.362 166.036 340.95 164.847 336.273C163.772 332.049 164.29 327.787 165.925 324.155C165.681 324.516 165.445 324.889 165.217 325.275C162.517 329.847 161.451 335.593 162.898 341.28C164.264 346.652 167.531 350.571 171.133 352.856C175.046 355.341 179.558 356.099 183.793 355.312C187.872 354.556 191.849 352.403 195.001 348.604Z" fill="#05C3FF"/>
<path fill-rule="evenodd" clip-rule="evenodd" d="M170.017 343.704C172.495 345.76 176.029 347.294 179.929 347.367C184.302 347.449 188.07 345.751 190.627 343.336C190.84 343.135 191.043 342.931 191.239 342.722C189.102 344.28 186.296 345.296 183.123 345.237C179.728 345.174 176.651 343.838 174.493 342.048C172.007 339.985 170.597 337.381 170.102 334.711C169.587 331.939 170.083 328.986 171.71 326.425C173.206 324.067 175.771 321.929 179.287 321.034C182.462 320.226 185.666 320.616 188.397 321.846C188.125 321.662 187.845 321.484 187.555 321.313C184.118 319.283 179.798 318.482 175.523 319.569C171.484 320.597 168.538 323.053 166.82 325.76C164.952 328.702 164.382 332.094 164.974 335.278C165.542 338.344 167.161 341.334 170.017 343.704Z" fill="#FFD50D"/>
<path fill-rule="evenodd" clip-rule="evenodd" d="M195.867 327.26C194.942 324.517 192.962 321.675 190.013 319.779C186.705 317.652 183.021 317.172 179.924 317.814C179.667 317.867 179.415 317.928 179.167 317.995C181.537 317.811 184.164 318.358 186.563 319.901C189.131 321.552 190.855 324.026 191.661 326.415C192.59 329.166 192.439 331.824 191.558 334.1C190.643 336.464 188.87 338.49 186.416 339.681C184.159 340.779 181.187 341.205 178.075 340.229C175.264 339.349 172.997 337.538 171.488 335.309C171.609 335.578 171.739 335.846 171.881 336.114C173.552 339.289 176.479 341.942 180.263 343.127C183.838 344.247 187.251 343.758 189.844 342.498C192.662 341.129 194.699 338.802 195.749 336.087C196.761 333.473 196.934 330.421 195.867 327.26Z" fill="#3DCCC7"/>
</g>
<defs>
<filter id="filter0_d" x="161" y="316" width="70" height="70" filterUnits="userSpaceOnUse" color-interpolation-filters="sRGB">
<feFlood flood-opacity="0" result="BackgroundImageFix"/>
<feColorMatrix in="SourceAlpha" type="matrix" values="0 0 0 0 0 0 0 0 0 0 0 0 0 0 0 0 0 0 127 0"/>
<feOffset dx="15" dy="15"/>
<feGaussianBlur stdDeviation="7.5"/>
<feColorMatrix type="matrix" values="0 0 0 0 0 0 0 0 0 0 0 0 0 0 0 0 0 0 0.46 0"/>
<feBlend mode="normal" in2="BackgroundImageFix" result="effect1_dropShadow"/>
<feBlend mode="normal" in="SourceGraphic" in2="effect1_dropShadow" result="shape"/>
</filter>
<linearGradient id="paint0_linear" x1="345.53" y1="138.954" x2="375.925" y2="138.954" gradientUnits="userSpaceOnUse">
<stop stop-color="white"/>
<stop offset="1" stop-color="white" stop-opacity="0.3"/>
</linearGradient>
<linearGradient id="paint1_linear" x1="17923.2" y1="8703.29" x2="20561.8" y2="8703.29" gradientUnits="userSpaceOnUse">
<stop stop-color="white"/>
<stop offset="1" stop-color="white" stop-opacity="0.3"/>
</linearGradient>
<clipPath id="clip0">
<rect width="264" height="263" fill="white" transform="translate(202 5)"/>
</clipPath>
<clipPath id="clip1">
<rect width="40" height="40" fill="white" transform="translate(161 316)"/>
</clipPath>
</defs>
</svg>
