<svg width="371" height="377" viewBox="0 0 371 377" fill="none" xmlns="http://www.w3.org/2000/svg">
<g clip-path="url(#clip0)" filter="url(#filter0_d)">
<path fill-rule="evenodd" clip-rule="evenodd" d="M297.509 285.286C321.448 256.438 339.298 215.303 340.144 169.92C341.097 119.015 321.343 75.1581 293.226 45.3937C290.892 42.9234 288.511 40.5553 286.088 38.2812C304.217 63.1443 316.046 95.8086 315.355 132.74C314.617 172.254 299.076 208.07 278.233 233.187C254.223 262.125 223.92 278.529 192.846 284.294C160.58 290.288 126.205 284.51 96.3969 265.579C68.9571 248.17 44.0664 218.315 33.6568 177.386C24.2514 140.431 28.7892 103.139 43.0965 71.3556C40.9619 74.5178 38.8908 77.7802 36.9015 81.1542C13.2755 121.158 3.94305 171.443 16.604 221.197C28.56 268.206 57.1485 302.493 88.6626 322.488C122.899 344.233 162.381 350.868 199.439 343.983C235.129 337.364 269.933 318.524 297.509 285.286Z" fill="#05C3FF"/>
<path fill-rule="evenodd" clip-rule="evenodd" d="M78.8966 242.407C100.584 260.404 131.508 273.823 165.626 274.459C203.894 275.175 236.864 260.325 259.24 239.187C261.097 237.432 262.878 235.643 264.587 233.821C245.896 247.45 221.34 256.342 193.576 255.823C163.871 255.269 136.945 243.585 118.063 227.916C96.3084 209.866 83.9764 187.085 79.6427 163.725C75.1366 139.468 79.4804 113.626 93.7121 91.2173C106.8 70.589 129.244 51.877 160.012 44.0513C187.794 36.9807 215.829 40.392 239.723 51.1478C237.346 49.5431 234.893 47.9861 232.357 46.4906C202.283 28.7293 164.48 21.7135 127.077 31.2316C91.737 40.2197 65.9613 61.7116 50.9292 85.403C34.5826 111.141 29.5943 140.822 34.7704 168.681C39.7462 195.512 53.9097 221.676 78.8966 242.407Z" fill="#FFD50D"/>
<path fill-rule="evenodd" clip-rule="evenodd" d="M305.09 98.526C296.991 74.5204 279.664 49.6578 253.86 33.0676C224.919 14.4576 192.683 10.258 165.587 15.8694C163.337 16.3357 161.131 16.8647 158.963 17.4514C179.696 15.8462 202.682 20.6324 223.679 34.1342C246.145 48.5786 261.232 70.2264 268.283 91.1269C276.409 115.206 275.092 138.456 267.382 158.375C259.381 179.06 243.86 196.783 222.394 207.211C202.645 216.817 176.64 220.54 149.405 212.005C124.812 204.302 104.972 188.46 91.7671 168.953C92.8285 171.303 93.9702 173.652 95.2049 175.993C109.832 203.777 135.443 226.987 168.554 237.359C199.835 247.162 229.7 242.884 252.384 231.852C277.039 219.875 294.864 199.52 304.053 175.762C312.91 152.885 314.423 126.181 305.09 98.526Z" fill="#3DCCC7"/>
</g>
<defs>
<filter id="filter0_d" x="0" y="0" width="380" height="380" filterUnits="userSpaceOnUse" color-interpolation-filters="sRGB">
<feFlood flood-opacity="0" result="BackgroundImageFix"/>
<feColorMatrix in="SourceAlpha" type="matrix" values="0 0 0 0 0 0 0 0 0 0 0 0 0 0 0 0 0 0 127 0"/>
<feOffset dx="15" dy="15"/>
<feGaussianBlur stdDeviation="7.5"/>
<feColorMatrix type="matrix" values="0 0 0 0 0 0 0 0 0 0 0 0 0 0 0 0 0 0 0.46 0"/>
<feBlend mode="normal" in2="BackgroundImageFix" result="effect1_dropShadow"/>
<feBlend mode="normal" in="SourceGraphic" in2="effect1_dropShadow" result="shape"/>
</filter>
<clipPath id="clip0">
<rect width="350" height="350" fill="white"/>
</clipPath>
</defs>
</svg>
