<svg width="283" height="249" viewBox="0 0 283 249" fill="none" xmlns="http://www.w3.org/2000/svg">
<path d="M87.3967 153.102L76.8205 222.105C75.9236 227.947 78.8254 233.721 84.0568 236.469L100.091 244.893C101.766 245.776 103.725 245.854 105.472 245.131L145.551 228.422C146.169 228.159 146.21 227.58 146.21 227.41C146.205 227.239 146.143 226.666 145.514 226.428L124.656 218.531C118.718 216.285 114.646 210.954 114.033 204.627L108.199 144.424L87.3967 153.102ZM103.029 248.359C101.581 248.359 100.143 248.013 98.8234 247.321L82.7838 238.897C76.5267 235.607 73.0373 228.691 74.1197 221.687L84.8145 151.924C84.8866 151.454 85.1959 151.056 85.6391 150.87L108.858 141.186C109.25 141.016 109.714 141.052 110.085 141.274C110.456 141.496 110.698 141.883 110.745 142.317L116.755 204.359C117.27 209.642 120.666 214.095 125.625 215.975L146.478 223.867C147.952 224.419 148.916 225.793 148.942 227.369C148.968 228.939 148.05 230.344 146.602 230.948L106.518 247.662C105.395 248.132 104.215 248.359 103.029 248.359Z" fill="#8645D1"/>
<path d="M16.4744 238.15C16.2631 238.15 16.0569 238.104 15.8662 238.006L4.37258 232.247C1.97592 230.759 0.610077 228.306 0.610077 225.62V84.9938C0.610077 78.4704 4.49628 72.6444 10.5008 70.1394L135.802 17.5859C136.493 17.2967 137.302 17.6221 137.596 18.3193C137.89 19.0166 137.555 19.8223 136.859 20.1116L11.5523 72.665C6.56823 74.7465 3.34691 79.5861 3.34691 84.9938V225.62C3.34691 227.356 4.22826 228.936 5.70234 229.861L17.0826 235.552C17.763 235.893 18.0361 236.714 17.696 237.391C17.4589 237.871 16.9795 238.15 16.4744 238.15Z" fill="#8645D1"/>
<path d="M153.607 13.0476C153.066 13.0476 152.556 12.7274 152.339 12.1902C152.056 11.4878 152.396 10.6924 153.092 10.4083L174.177 1.89646C176.265 1.02875 180.538 -0.0920447 183.295 1.29216L193.995 6.15239C194.68 6.46229 194.99 7.27318 194.675 7.96012C194.361 8.64706 193.562 8.9518 192.866 8.6419L182.12 3.76618C180.589 3.00693 177.424 3.50793 175.213 4.43762L154.118 12.9495C153.947 13.0166 153.777 13.0476 153.607 13.0476Z" fill="#8645D1"/>
<path d="M188.01 7.13638H188.041H188.01ZM190.463 8.00925C189.814 8.00925 189.165 8.13838 188.536 8.40179L21.9034 77.8653C16.9297 79.9519 13.7083 84.7915 13.7083 90.1941V230.82C13.7083 232.525 14.5175 234.038 15.9349 234.973C17.3471 235.918 19.0532 236.078 20.6097 235.407L187.273 164.921C192.221 162.829 195.416 158 195.416 152.618V12.9986C195.416 11.3097 194.612 9.79633 193.205 8.85631C192.365 8.2985 191.417 8.00925 190.463 8.00925V8.00925ZM18.6769 238.547C17.1822 238.547 15.703 238.113 14.4248 237.261C12.26 235.825 10.9715 233.418 10.9715 230.82V90.1941C10.9715 83.6759 14.8526 77.8446 20.8571 75.3448L187.484 5.87097C189.86 4.8793 192.566 5.13753 194.726 6.57856C196.87 8.00925 198.153 10.411 198.153 12.9986V152.618C198.153 159.11 194.303 164.926 188.34 167.446L21.6766 237.938C20.7128 238.341 19.6923 238.547 18.6769 238.547Z" fill="#8645D1"/>
<path d="M12.3398 222.632C11.8038 222.632 11.2987 222.317 11.0771 221.795C10.7885 221.098 11.1132 220.292 11.8038 219.998L196.249 141.945C196.96 141.645 197.754 141.986 198.042 142.678C198.331 143.376 198.006 144.181 197.316 144.476L12.8759 222.523C12.6955 222.601 12.5151 222.632 12.3398 222.632Z" fill="#8645D1"/>
<path d="M13.7088 222.171V230.837C13.7088 232.521 14.5025 234.019 15.8993 234.954C17.3115 235.904 19.033 236.075 20.6359 235.414L187.253 164.896C192.211 162.805 195.412 157.981 195.412 152.599V145.275L13.7088 222.171ZM18.6773 238.544C17.162 238.544 15.6622 238.099 14.3737 237.237C12.245 235.806 10.972 233.41 10.972 230.837V221.262C10.972 220.709 11.307 220.213 11.8069 220.001L196.247 141.949C196.675 141.778 197.159 141.809 197.535 142.073C197.917 142.326 198.149 142.754 198.149 143.209V152.599C198.149 159.086 194.288 164.902 188.315 167.422L21.6873 237.944C20.7132 238.347 19.6927 238.544 18.6773 238.544Z" fill="#8645D1"/>
<path d="M27.1779 93.1878V199.013L183.976 132.7V27.8149L27.1779 93.1878ZM25.812 202.447C25.544 202.447 25.2812 202.375 25.0544 202.215C24.673 201.967 24.4462 201.538 24.4462 201.079V92.2736C24.4462 91.7209 24.7761 91.2199 25.2863 91.0081L184.821 24.4938C185.239 24.3234 185.723 24.3699 186.1 24.6229C186.481 24.876 186.713 25.3047 186.713 25.7592V133.609C186.713 134.161 186.383 134.657 185.878 134.874L26.3429 202.339C26.1728 202.411 25.9924 202.447 25.812 202.447Z" fill="#8645D1"/>
<path d="M12.3398 222.627C11.8038 222.627 11.2987 222.312 11.0771 221.79C10.7885 221.093 11.1132 220.287 11.8038 219.993L196.254 141.986C196.96 141.681 197.759 142.022 198.048 142.714C198.341 143.417 198.012 144.217 197.321 144.512L12.8759 222.518C12.6955 222.596 12.5151 222.627 12.3398 222.627Z" fill="#8645D1"/>
<path d="M42.9877 32.1613H43.0186H42.9877ZM88.3954 14.6572C87.8697 14.6572 87.3439 14.7657 86.8285 14.9826L43.5237 33.4267C41.0136 34.4907 39.3952 36.944 39.3952 39.6711V134.619C39.3952 136.044 40.0807 137.304 41.2713 138.089C42.4723 138.864 43.8845 138.983 45.1936 138.41L88.3078 119.31C90.7611 118.22 92.3486 115.782 92.3486 113.096V18.6394C92.3486 17.2862 91.6992 16.0776 90.5653 15.3287C89.9004 14.8845 89.153 14.6572 88.3954 14.6572ZM43.5237 141.503C42.2145 141.503 40.9106 141.132 39.7767 140.388C37.8232 139.112 36.6584 136.953 36.6584 134.619V39.6711C36.6584 35.8387 38.9365 32.3989 42.4516 30.901L85.7616 12.4621C87.8336 11.5738 90.1942 11.7958 92.0754 13.0406C93.9618 14.2905 95.0803 16.3823 95.0803 18.6394V113.096C95.0803 116.867 92.8588 120.286 89.4159 121.809L46.3018 140.915C45.4101 141.312 44.4617 141.503 43.5237 141.503Z" fill="#8645D1"/>
<path d="M50.306 67.0453V73.7235L82.8645 60.15L82.9109 53.4511L50.306 67.0453ZM48.9402 77.1531C48.6721 77.1531 48.4093 77.0704 48.1773 76.9207C47.8011 76.6624 47.5692 76.2389 47.5692 75.7792V66.1311C47.5692 65.5784 47.9042 65.0774 48.4144 64.8656L83.7716 50.1248C84.184 49.9337 84.6684 50.0009 85.055 50.2488C85.4364 50.5071 85.6632 50.9409 85.658 51.4006L85.5962 61.0797C85.591 61.622 85.2612 62.1179 84.7509 62.3296L49.4607 77.0446C49.2958 77.1169 49.1154 77.1531 48.9402 77.1531Z" fill="#8645D1"/>
<path d="M50.306 83.8364V90.5198L82.8645 76.9463L82.9109 70.2422L50.306 83.8364ZM48.9402 93.9493C48.6721 93.9493 48.4093 93.8667 48.1773 93.7169C47.8011 93.4587 47.5692 93.0351 47.5692 92.5755V82.9222C47.5692 82.3695 47.9042 81.8685 48.4144 81.6567L83.7716 66.9159C84.184 66.73 84.6684 66.7868 85.055 67.0451C85.4364 67.2982 85.6632 67.732 85.658 68.1917L85.5962 77.876C85.591 78.4183 85.2612 78.9141 84.7509 79.1259L49.4607 93.8409C49.2958 93.9132 49.1154 93.9493 48.9402 93.9493" fill="#8645D1"/>
<path d="M59.1622 113.639C58.6262 113.639 58.1211 113.324 57.8995 112.792C57.6057 112.1 57.9407 111.294 58.6365 111.005L73.4752 104.822C74.171 104.523 74.9699 104.858 75.2637 105.566C75.5574 106.258 75.2224 107.064 74.5215 107.348L59.6879 113.53C59.5127 113.608 59.3375 113.639 59.1622 113.639Z" fill="#8645D1"/>
<path d="M39.517 46.2146C38.981 46.2146 38.4759 45.8944 38.2543 45.3675C37.9605 44.6703 38.2955 43.8697 38.9913 43.5805L93.1919 20.9786C93.8774 20.7049 94.6866 21.0251 94.9752 21.7172C95.269 22.4196 94.9392 23.2202 94.2382 23.5095L40.0427 46.1061C39.8675 46.1836 39.6922 46.2146 39.517 46.2146Z" fill="#8645D1"/>
<path d="M258.6 18.1063H258.631H258.6ZM260.342 19.1238C259.929 19.1238 259.522 19.2065 259.125 19.3717L110.836 81.1963C108.301 82.25 106.662 84.7136 106.662 87.4666V183.313C106.662 184.547 107.249 185.647 108.275 186.324C109.301 187.011 110.532 187.14 111.677 186.644L259.316 124.2C261.836 123.136 263.46 120.682 263.46 117.95V22.2693C263.46 21.2001 262.955 20.2498 262.068 19.661C261.538 19.3046 260.94 19.1238 260.342 19.1238V19.1238ZM110.275 189.676C109.043 189.676 107.821 189.314 106.765 188.612C104.992 187.429 103.93 185.446 103.93 183.313V87.4666C103.93 83.598 106.229 80.1478 109.785 78.6706L258.074 16.8409C259.888 16.0868 261.95 16.2779 263.584 17.3781C265.218 18.4679 266.197 20.2963 266.197 22.2693V117.95C266.197 121.793 263.914 125.233 260.378 126.725L112.738 189.175C111.945 189.511 111.104 189.676 110.275 189.676" fill="#8645D1"/>
<path d="M249.995 47.096C249.469 47.096 248.943 47.2044 248.433 47.4214L182.93 75.5187C180.42 76.5879 178.801 79.0412 178.801 81.7683V158.282L253.953 126.585V51.0781C253.953 49.7249 253.309 48.5112 252.18 47.7674C251.505 47.3232 250.758 47.096 249.995 47.096ZM177.435 161.712C177.167 161.712 176.904 161.639 176.673 161.484C176.296 161.231 176.064 160.808 176.064 160.343V81.7683C176.064 77.9359 178.337 74.4961 181.858 72.9982L247.361 44.9009C249.459 44.0177 251.819 44.2294 253.69 45.4845C255.566 46.7344 256.685 48.8159 256.685 51.0781V127.494C256.685 128.046 256.355 128.547 255.85 128.759L177.961 161.608C177.791 161.675 177.616 161.712 177.435 161.712Z" fill="#8645D1"/>
<path d="M123.108 98.7206H123.139H123.108ZM162.13 83.8714C161.702 83.8714 161.274 83.9592 160.862 84.1348L123.644 99.9861C121.562 100.869 120.211 102.904 120.211 105.172V183.039L165.335 163.944V87.0995C165.335 85.9993 164.805 85.018 163.892 84.4085C163.351 84.0522 162.743 83.8714 162.13 83.8714ZM118.845 186.473C118.577 186.473 118.315 186.401 118.093 186.246C117.706 185.993 117.48 185.564 117.48 185.105V105.172C117.48 101.799 119.479 98.7723 122.572 97.4552L159.79 81.6091C161.635 80.8292 163.733 81.0203 165.402 82.1256C167.072 83.2309 168.072 85.0955 168.072 87.0995V164.858C168.072 165.411 167.742 165.906 167.237 166.118L119.381 186.37C119.211 186.437 119.026 186.473 118.845 186.473" fill="#8645D1"/>
<path d="M129.004 145.802C128.468 145.802 127.963 145.487 127.741 144.955C127.448 144.262 127.783 143.457 128.478 143.168L158.032 130.849C158.728 130.555 159.522 130.885 159.821 131.588C160.114 132.28 159.779 133.086 159.078 133.375L129.53 145.693C129.355 145.771 129.179 145.802 129.004 145.802Z" fill="#8645D1"/>
<path d="M191.488 115.078V142.054L232.68 124.633V97.899L191.488 115.078ZM190.117 145.489C189.854 145.489 189.591 145.417 189.359 145.262C188.983 145.009 188.751 144.58 188.751 144.12V114.163C188.751 113.611 189.081 113.11 189.596 112.898L233.525 94.5831C233.942 94.3971 234.422 94.4539 234.803 94.707C235.185 94.9601 235.411 95.3836 235.411 95.8433V125.542C235.411 126.094 235.081 126.59 234.582 126.807L190.653 145.386C190.483 145.453 190.303 145.489 190.117 145.489" fill="#8645D1"/>
<path d="M135.696 152.048C135.16 152.048 134.655 151.733 134.439 151.201C134.145 150.509 134.475 149.703 135.171 149.414L151.344 142.679C152.03 142.369 152.834 142.71 153.127 143.417C153.416 144.109 153.091 144.915 152.39 145.204L136.222 151.939C136.052 152.017 135.871 152.048 135.696 152.048Z" fill="#8645D1"/>
<path d="M190.242 89.5206C189.706 89.5206 189.201 89.2056 188.98 88.6736C188.686 87.9815 189.021 87.1757 189.717 86.8865L241.99 65.0956C242.68 64.796 243.484 65.1317 243.773 65.8341C244.067 66.5314 243.737 67.3372 243.036 67.6212L190.768 89.4122C190.593 89.4896 190.418 89.5206 190.242 89.5206Z" fill="#8645D1"/>
<path d="M105.295 94.0332C104.759 94.0332 104.254 93.7181 104.032 93.1861C103.738 92.494 104.073 91.6883 104.769 91.3991L263.093 25.3857C263.784 25.1068 264.588 25.4271 264.876 26.1243C265.17 26.8216 264.84 27.6273 264.139 27.9166L105.821 93.9247C105.645 94.0022 105.47 94.0332 105.295 94.0332Z" fill="#8645D1"/>
<path d="M145.385 106.3C142.092 106.3 138.587 108.96 136.866 113.097C134.758 118.19 136.144 123.628 139.943 125.219C143.772 126.789 148.581 123.943 150.689 118.866C152.797 113.768 151.421 108.335 147.612 106.739C146.896 106.445 146.148 106.3 145.385 106.3ZM142.128 128.385C141.03 128.385 139.937 128.184 138.896 127.745C133.691 125.576 131.655 118.531 134.345 112.048C137.036 105.556 143.458 102.049 148.658 104.213C153.864 106.383 155.91 113.422 153.214 119.915C151.065 125.1 146.524 128.385 142.128 128.385" fill="#8645D1"/>
<path d="M230.292 89.8992H230.323H230.292ZM276.983 71.7392C276.628 71.7392 276.267 71.8115 275.927 71.9561L230.828 91.1646C228.318 92.2286 226.7 94.682 226.7 97.4091V159.466C226.7 160.391 227.143 161.212 227.921 161.713C228.689 162.219 229.612 162.302 230.468 161.925L275.618 141.916C278.071 140.831 279.653 138.393 279.653 135.707V74.425C279.653 73.5108 279.215 72.6947 278.452 72.1886C278.004 71.889 277.499 71.7392 276.983 71.7392ZM229.385 164.894C228.349 164.894 227.318 164.595 226.427 164.011C224.886 163.004 223.968 161.31 223.968 159.466V97.4091C223.968 93.5767 226.236 90.1368 229.756 88.639L274.86 69.4305C276.545 68.7177 278.447 68.9088 279.968 69.9005C281.483 70.9128 282.39 72.6018 282.39 74.425V135.707C282.39 139.478 280.169 142.897 276.72 144.421L231.576 164.43C230.87 164.739 230.122 164.894 229.385 164.894Z" fill="#8645D1"/>
<path d="M236.979 101.215V115.258L271.46 100.104V86.3396L236.979 101.215ZM235.608 118.729C235.35 118.729 235.087 118.652 234.861 118.502C234.479 118.254 234.242 117.82 234.242 117.355V100.311C234.242 99.7633 234.572 99.2675 235.072 99.0557L272.29 83.003C272.707 82.8171 273.197 82.8636 273.584 83.1115C273.965 83.3697 274.197 83.7984 274.197 84.2581V100.998C274.197 101.54 273.877 102.036 273.377 102.248L236.16 118.61C235.984 118.693 235.799 118.729 235.608 118.729" fill="#8645D1"/>
<path d="M240.54 130.639C240.004 130.639 239.499 130.324 239.283 129.792C238.989 129.1 239.319 128.294 240.015 128.005L269.579 115.681C270.269 115.382 271.073 115.723 271.357 116.425C271.656 117.117 271.326 117.923 270.625 118.212L241.066 130.53C240.891 130.608 240.716 130.639 240.54 130.639Z" fill="#8645D1"/>
<path d="M247.24 136.885C246.704 136.885 246.198 136.565 245.977 136.038C245.683 135.341 246.018 134.54 246.714 134.251L262.882 127.511C263.573 127.216 264.377 127.542 264.666 128.249C264.959 128.947 264.63 129.747 263.929 130.037L247.765 136.777C247.59 136.854 247.415 136.885 247.24 136.885Z" fill="#8645D1"/>
</svg>
