<svg width="462" height="510" viewBox="0 0 462 510" fill="none" xmlns="http://www.w3.org/2000/svg">
<path d="M355.011 173.581L230.824 245.303L106.63 173.585L230.824 105.264L355.011 173.581ZM241.812 264.363V395.515L365.58 327.448V192.883L241.812 264.363ZM16.1795 394.673L219.812 509.859V420.623L92.4895 350.602L16.1795 394.673ZM219.812 395.515V264.349L96.0439 192.876V327.449L219.812 395.515ZM241.812 6.10352e-05V86.1992L377.278 160.721L450.819 118.249L241.812 6.10352e-05ZM369.156 350.59L241.812 420.623V509.859L445.47 394.659L369.156 350.59ZM387.58 180.177V335.825L461.624 378.583V137.414L387.58 180.177ZM84.3621 160.726L219.812 86.2126V0L10.8052 118.249L84.3621 160.726ZM74.0439 335.849V180.172L0 137.414V378.612L74.0439 335.849Z" fill="#8645D1"/>
</svg>
